<svg width="80" height="80" viewBox="0 0 80 80" fill="none" xmlns="http://www.w3.org/2000/svg">
<mask id="mask0_2_38" style="mask-type: alpha" maskUnits="userSpaceOnUse" x="8" y="16" width="64" height="64">
<path d="M13.3333 80C13.3333 80 8 80 8 73.3333C8 66.6667 13.3333 53.3333 40 53.3333C66.6667 53.3333 71.9999 66.6667 71.9999 73.3333C71.9999 80 66.6667 80 66.6667 80H13.3333ZM40 40C44.5063 40 48 37.2953 51.0775 33.9225C54.155 30.5498 55.9999 26.7439 55.9999 23.3333C55.9999 19.9226 54.155 16.1166 51.0775 12.7439C48.0001 9.37113 44.5064 6.66667 40 6.66667C35.4936 6.66667 31.9999 9.37113 28.9225 12.7439C25.845 16.1166 23.9999 19.9226 23.9999 23.3333C23.9999 26.7439 25.845 30.5498 28.9225 33.9225C31.9999 37.2953 35.4936 40 40 40Z" fill="#DADADA"/>
</mask>
<g mask="url(#mask0_2_38)">
<circle cx="40" cy="40" r="40" fill="#DADADA"/>
</g>
<circle cx="40" cy="40" r="39.5" stroke="#DADADA"/>
</svg>
